<svg width="60" height="60" viewBox="0 0 60 60" fill="none" xmlns="http://www.w3.org/2000/svg">
<g clip-path="url(#clip0_408_178)">
<path d="M30 0.06C46.5 0.06 59.94 13.44 59.94 30C59.94 46.5 46.56 59.94 30 59.94C13.5 59.94 0.06 46.5 0.06 30C0.06 13.5 13.5 0.06 30 0.06Z" fill="#140F4D"/>
<path d="M3.12 30C3.12 15.12 15.12 3.06 30 3.06C44.88 3.06 56.88 15.12 56.88 30C56.88 44.88 44.82 56.94 30 56.94C15.12 56.94 3.12 44.88 3.12 30ZM0 30C0 46.56 13.44 60 30 60C46.56 60 60 46.56 60 30C60 13.44 46.56 0 30 0C13.44 0 0 13.44 0 30Z" fill="#968CFF"/>
<path d="M35.46 13.14V48.3L44.46 41.16V18L35.46 13.14Z" fill="#DBD9FF"/>
<path d="M31.32 40.62L24.06 43.8V16.2L31.32 18.36V40.62Z" fill="#DBD9FF"/>
<path d="M14.34 39.84L19.92 38.34V20.76L14.34 19.86V39.84Z" fill="#DBD9FF"/>
</g>
<defs>
<clipPath id="clip0_408_178">
<rect width="60" height="60" fill="white"/>
</clipPath>
</defs>
</svg>
