<svg width="49" height="60" viewBox="0 0 49 60" fill="none" xmlns="http://www.w3.org/2000/svg">
<g clip-path="url(#clip0_408_317)">
<path d="M47.4651 20.4706C43.4506 22.9412 40.9711 27.1765 40.9711 31.8824C40.9711 37.1765 44.159 42 49 44C48.0554 47.0588 46.6386 49.8824 44.8675 52.4706C42.2699 56.1176 39.5542 59.8824 35.5398 59.8824C31.5253 59.8824 30.3446 57.5294 25.6217 57.5294C21.0169 57.5294 19.3639 60 15.5855 60C11.8072 60 9.20964 56.5882 6.25783 52.3529C2.36145 46.4706 0.118072 39.6471 0 32.4706C0 20.8235 7.55663 14.5882 15.1133 14.5882C19.1277 14.5882 22.4337 17.1765 24.9133 17.1765C27.2747 17.1765 31.053 14.4706 35.5398 14.4706C40.2626 14.3529 44.7494 16.5882 47.4651 20.4706ZM33.4145 9.52941C35.4217 7.17647 36.4843 4.23529 36.6024 1.17647C36.6024 0.823529 36.6024 0.352941 36.4843 0C33.0602 0.352941 29.8723 2 27.6289 4.58824C25.6217 6.82353 24.441 9.64706 24.3229 12.7059C24.3229 13.0588 24.3229 13.4118 24.441 13.7647C24.6771 13.7647 25.0313 13.8824 25.2675 13.8824C28.4554 13.6471 31.4072 12 33.4145 9.52941Z" fill="black"/>
</g>
<defs>
<clipPath id="clip0_408_317">
<rect width="49" height="60" fill="white"/>
</clipPath>
</defs>
</svg>
