<svg width="67" height="40" viewBox="0 0 67 40" fill="none" xmlns="http://www.w3.org/2000/svg">
<g id="amazon_web_services_logo.svg" clip-path="url(#clip0_445_150)">
<g id="Group">
<path id="Vector" d="M18.8645 14.5C18.8645 15.3333 18.9757 16 19.087 16.5C19.254 17 19.4766 17.5 19.8105 18.1111C19.9218 18.2778 19.9774 18.4444 19.9774 18.6111C19.9774 18.8333 19.8661 19.0555 19.5322 19.2778L18.141 20.2222C17.9184 20.3333 17.7515 20.4444 17.5846 20.4444C17.362 20.4444 17.1394 20.3333 16.9168 20.1111C16.5829 19.7778 16.3603 19.4444 16.1377 19.0555C15.9151 18.6667 15.6925 18.2778 15.4699 17.7222C13.7449 19.7778 11.5746 20.7778 8.90349 20.7778C7.01146 20.7778 5.56462 20.2222 4.45166 19.1667C3.3387 18.1111 2.78223 16.6667 2.78223 14.8889C2.78223 13 3.45 11.4444 4.78555 10.3333C6.1211 9.22221 7.95748 8.6111 10.239 8.6111C11.0181 8.6111 11.7972 8.66665 12.5762 8.77776C13.411 8.88888 14.2457 9.05554 15.136 9.27777V7.66665C15.136 5.99999 14.8022 4.77776 14.0787 4.1111C13.3553 3.44443 12.1867 3.1111 10.4616 3.1111C9.68256 3.1111 8.90349 3.22221 8.06877 3.38888C7.23405 3.6111 6.45498 3.83332 5.67591 4.16665C5.34203 4.27776 5.06379 4.38888 4.89684 4.44443C4.7299 4.44443 4.61861 4.49999 4.56296 4.49999C4.22907 4.49999 4.11777 4.27776 4.11777 3.83332V2.72221C4.11777 2.38888 4.17342 2.1111 4.28472 1.94443C4.39601 1.77776 4.61861 1.6111 4.89684 1.49999C5.67591 1.1111 6.62193 0.777764 7.67924 0.499986C8.79219 0.222209 9.90515 0.055542 11.1294 0.055542C13.8005 0.055542 15.6925 0.666653 16.9724 1.83332C18.1967 3.05554 18.8088 4.83332 18.8088 7.33332L18.8645 14.5ZM9.8495 17.8889C10.5729 17.8889 11.352 17.7778 12.1311 17.5C12.9101 17.2222 13.6336 16.7222 14.2457 16.0555C14.5796 15.6111 14.8578 15.1667 15.0248 14.6111C15.136 14.0555 15.2473 13.4444 15.2473 12.6667V11.7222C14.5796 11.5555 13.9118 11.4444 13.1884 11.3333C12.465 11.2222 11.7972 11.2222 11.0738 11.2222C9.57126 11.2222 8.51395 11.5 7.73488 12.1111C7.01146 12.7222 6.62193 13.5555 6.62193 14.6667C6.62193 15.7222 6.90017 16.5 7.45664 17C8.01312 17.6667 8.79219 17.8889 9.8495 17.8889ZM27.7125 20.3333C27.3229 20.3333 27.0447 20.2778 26.8777 20.1111C26.7108 20 26.5439 19.6667 26.4326 19.2222L21.2017 1.99999C21.0904 1.55554 20.9791 1.27776 20.9791 1.1111C20.9791 0.777764 21.146 0.555542 21.5355 0.555542H23.7058C24.151 0.555542 24.4292 0.611098 24.5962 0.777764C24.7631 0.888875 24.9301 1.22221 25.0414 1.66665L28.7698 16.3889L32.2199 1.66665C32.3312 1.22221 32.4425 0.944431 32.6651 0.777764C32.8321 0.666653 33.1659 0.555542 33.5555 0.555542H35.3362C35.7814 0.555542 36.0596 0.611098 36.2266 0.777764C36.3935 0.888875 36.5605 1.22221 36.6718 1.66665L40.1776 16.5555L44.0173 1.66665C44.1286 1.22221 44.2955 0.944431 44.4625 0.777764C44.6294 0.666653 44.9076 0.555542 45.3528 0.555542H47.4118C47.7457 0.555542 47.9683 0.722209 47.9683 1.1111C47.9683 1.22221 47.9683 1.33332 47.9126 1.44443C47.9126 1.55554 47.857 1.77776 47.7457 1.99999L42.3478 19.2222C42.2365 19.6667 42.0696 19.9444 41.9027 20.1111C41.7357 20.2222 41.4575 20.3333 41.0679 20.3333H39.1759C38.7307 20.3333 38.4525 20.2778 38.2855 20.1111C38.1186 19.9444 37.9517 19.6667 37.8404 19.2222L34.3902 4.88888L30.94 19.2222C30.8287 19.6667 30.7174 19.9444 30.4949 20.1111C30.3279 20.2778 29.994 20.3333 29.6045 20.3333H27.7125ZM56.3711 20.8889C55.2025 20.8889 54.0339 20.7778 52.9209 20.5C51.808 20.2222 50.9176 19.9444 50.3611 19.6111C50.0272 19.3889 49.749 19.1667 49.6934 19C49.6377 18.8333 49.5264 18.5555 49.5264 18.3889V17.2778C49.5264 16.8333 49.6934 16.6111 50.0272 16.6111C50.1385 16.6111 50.3055 16.6111 50.4168 16.6667C50.5281 16.7222 50.7507 16.7778 50.9733 16.8889C51.7523 17.2222 52.5314 17.5 53.4218 17.6667C54.3121 17.8333 55.2025 17.9444 56.0929 17.9444C57.4841 17.9444 58.597 17.7222 59.3204 17.2222C60.0995 16.7222 60.489 16 60.489 15.1111C60.489 14.5 60.2664 14 59.8769 13.5555C59.4874 13.1111 58.7083 12.7778 57.651 12.3889L54.4234 11.3889C52.8096 10.8889 51.5854 10.1111 50.862 9.1111C50.1385 8.1111 49.749 7.05554 49.749 5.88888C49.749 4.94443 49.9716 4.1111 50.3611 3.44443C50.7507 2.77776 51.3071 2.1111 51.9749 1.6111C52.6427 1.1111 53.4218 0.722209 54.3121 0.444431C55.2025 0.166653 56.1485 0.055542 57.0945 0.055542C57.5953 0.055542 58.0962 0.055542 58.597 0.166653C59.0978 0.222209 59.5987 0.33332 60.0439 0.388875C60.489 0.499986 60.9342 0.611098 61.3237 0.722209C61.7133 0.83332 62.0472 0.999986 62.2698 1.1111C62.6037 1.27776 62.8262 1.44443 62.9375 1.66665C63.0488 1.83332 63.1601 2.1111 63.1601 2.38888V3.44443C63.1601 3.88888 62.9932 4.16665 62.6593 4.16665C62.4924 4.16665 62.2141 4.05554 61.8246 3.88888C60.5447 3.33332 59.1535 2.99999 57.5397 2.99999C56.2598 2.99999 55.2581 3.22221 54.5904 3.6111C53.9226 3.99999 53.5331 4.66665 53.5331 5.6111C53.5331 6.22221 53.7556 6.77776 54.2008 7.16665C54.646 7.6111 55.4807 7.99999 56.6493 8.38888L59.8213 9.38888C61.435 9.88888 62.6036 10.6111 63.2714 11.5C63.9392 12.3889 64.2731 13.4444 64.2731 14.6111C64.2731 15.5555 64.0505 16.4444 63.7166 17.1667C63.3271 17.9444 62.7706 18.6111 62.1028 19.1111C61.435 19.6667 60.6003 20.0555 59.6543 20.3333C58.5414 20.7778 57.4841 20.8889 56.3711 20.8889Z" fill="#252F3E"/>
<g id="Group_2">
<path id="Vector_2" fill-rule="evenodd" clip-rule="evenodd" d="M60.6004 31.7222C53.2549 37.1111 42.5705 40 33.4442 40C20.5896 40 9.01484 35.2778 0.278131 27.3889C-0.389643 26.7778 0.222483 25.9444 1.0572 26.3889C10.5173 31.8889 22.1477 35.1667 34.2233 35.1667C42.3479 35.1667 51.3072 33.5 59.5431 30C60.7117 29.5 61.769 30.8333 60.6004 31.7222Z" fill="#FF9900"/>
<path id="Vector_3" fill-rule="evenodd" clip-rule="evenodd" d="M63.6054 28.2778C62.6594 27.0555 57.4285 27.7222 55.0357 28C54.3122 28.1111 54.2009 27.4444 54.8687 27C59.0423 24.0555 65.9426 24.8889 66.7217 25.8889C67.5008 26.8889 66.4991 33.7778 62.6038 37.0555C61.9916 37.5555 61.4352 37.2778 61.7134 36.6111C62.6038 34.3889 64.5514 29.4444 63.6054 28.2778Z" fill="#FF9900"/>
</g>
</g>
<g id="Group_3">
<path id="Vector_4" d="M18.8645 14.5C18.8645 15.3333 18.9757 16 19.087 16.5C19.254 17 19.4766 17.5 19.8105 18.1111C19.9218 18.2778 19.9774 18.4444 19.9774 18.6111C19.9774 18.8333 19.8661 19.0555 19.5322 19.2778L18.141 20.2222C17.9184 20.3333 17.7515 20.4444 17.5846 20.4444C17.362 20.4444 17.1394 20.3333 16.9168 20.1111C16.5829 19.7778 16.3603 19.4444 16.1377 19.0555C15.9151 18.6667 15.6925 18.2778 15.4699 17.7222C13.7449 19.7778 11.5746 20.7778 8.90349 20.7778C7.01146 20.7778 5.56462 20.2222 4.45166 19.1667C3.3387 18.1111 2.78223 16.6667 2.78223 14.8889C2.78223 13 3.45 11.4444 4.78555 10.3333C6.1211 9.22221 7.95748 8.6111 10.239 8.6111C11.0181 8.6111 11.7972 8.66665 12.5762 8.77776C13.411 8.88888 14.2457 9.05554 15.136 9.27777V7.66665C15.136 5.99999 14.8022 4.77776 14.0787 4.1111C13.3553 3.44443 12.1867 3.1111 10.4616 3.1111C9.68256 3.1111 8.90349 3.22221 8.06877 3.38888C7.23405 3.6111 6.45498 3.83332 5.67591 4.16665C5.34203 4.27776 5.06379 4.38888 4.89684 4.44443C4.7299 4.44443 4.61861 4.49999 4.56296 4.49999C4.22907 4.49999 4.11777 4.27776 4.11777 3.83332V2.72221C4.11777 2.38888 4.17342 2.1111 4.28472 1.94443C4.39601 1.77776 4.61861 1.6111 4.89684 1.49999C5.67591 1.1111 6.62193 0.777764 7.67924 0.499986C8.79219 0.222209 9.90515 0.055542 11.1294 0.055542C13.8005 0.055542 15.6925 0.666653 16.9724 1.83332C18.1967 3.05554 18.8088 4.83332 18.8088 7.33332L18.8645 14.5ZM9.8495 17.8889C10.5729 17.8889 11.352 17.7778 12.1311 17.5C12.9101 17.2222 13.6336 16.7222 14.2457 16.0555C14.5796 15.6111 14.8578 15.1667 15.0248 14.6111C15.136 14.0555 15.2473 13.4444 15.2473 12.6667V11.7222C14.5796 11.5555 13.9118 11.4444 13.1884 11.3333C12.465 11.2222 11.7972 11.2222 11.0738 11.2222C9.57126 11.2222 8.51395 11.5 7.73488 12.1111C7.01146 12.7222 6.62193 13.5555 6.62193 14.6667C6.62193 15.7222 6.90017 16.5 7.45664 17C8.01312 17.6667 8.79219 17.8889 9.8495 17.8889ZM27.7125 20.3333C27.3229 20.3333 27.0447 20.2778 26.8777 20.1111C26.7108 20 26.5439 19.6667 26.4326 19.2222L21.2017 1.99999C21.0904 1.55554 20.9791 1.27776 20.9791 1.1111C20.9791 0.777764 21.146 0.555542 21.5355 0.555542H23.7058C24.151 0.555542 24.4292 0.611098 24.5962 0.777764C24.7631 0.888875 24.9301 1.22221 25.0414 1.66665L28.7698 16.3889L32.2199 1.66665C32.3312 1.22221 32.4425 0.944431 32.6651 0.777764C32.8321 0.666653 33.1659 0.555542 33.5555 0.555542H35.3362C35.7814 0.555542 36.0596 0.611098 36.2266 0.777764C36.3935 0.888875 36.5605 1.22221 36.6718 1.66665L40.1776 16.5555L44.0173 1.66665C44.1286 1.22221 44.2955 0.944431 44.4625 0.777764C44.6294 0.666653 44.9076 0.555542 45.3528 0.555542H47.4118C47.7457 0.555542 47.9683 0.722209 47.9683 1.1111C47.9683 1.22221 47.9683 1.33332 47.9126 1.44443C47.9126 1.55554 47.857 1.77776 47.7457 1.99999L42.3478 19.2222C42.2365 19.6667 42.0696 19.9444 41.9027 20.1111C41.7357 20.2222 41.4575 20.3333 41.0679 20.3333H39.1759C38.7307 20.3333 38.4525 20.2778 38.2855 20.1111C38.1186 19.9444 37.9517 19.6667 37.8404 19.2222L34.3902 4.88888L30.94 19.2222C30.8287 19.6667 30.7174 19.9444 30.4949 20.1111C30.3279 20.2778 29.994 20.3333 29.6045 20.3333H27.7125ZM56.3711 20.8889C55.2025 20.8889 54.0339 20.7778 52.9209 20.5C51.808 20.2222 50.9176 19.9444 50.3611 19.6111C50.0272 19.3889 49.749 19.1667 49.6934 19C49.6377 18.8333 49.5264 18.5555 49.5264 18.3889V17.2778C49.5264 16.8333 49.6934 16.6111 50.0272 16.6111C50.1385 16.6111 50.3055 16.6111 50.4168 16.6667C50.5281 16.7222 50.7507 16.7778 50.9733 16.8889C51.7523 17.2222 52.5314 17.5 53.4218 17.6667C54.3121 17.8333 55.2025 17.9444 56.0929 17.9444C57.4841 17.9444 58.597 17.7222 59.3204 17.2222C60.0995 16.7222 60.489 16 60.489 15.1111C60.489 14.5 60.2664 14 59.8769 13.5555C59.4874 13.1111 58.7083 12.7778 57.651 12.3889L54.4234 11.3889C52.8096 10.8889 51.5854 10.1111 50.862 9.1111C50.1385 8.1111 49.749 7.05554 49.749 5.88888C49.749 4.94443 49.9716 4.1111 50.3611 3.44443C50.7507 2.77776 51.3071 2.1111 51.9749 1.6111C52.6427 1.1111 53.4218 0.722209 54.3121 0.444431C55.2025 0.166653 56.1485 0.055542 57.0945 0.055542C57.5953 0.055542 58.0962 0.055542 58.597 0.166653C59.0978 0.222209 59.5987 0.33332 60.0439 0.388875C60.489 0.499986 60.9342 0.611098 61.3237 0.722209C61.7133 0.83332 62.0472 0.999986 62.2698 1.1111C62.6037 1.27776 62.8262 1.44443 62.9375 1.66665C63.0488 1.83332 63.1601 2.1111 63.1601 2.38888V3.44443C63.1601 3.88888 62.9932 4.16665 62.6593 4.16665C62.4924 4.16665 62.2141 4.05554 61.8246 3.88888C60.5447 3.33332 59.1535 2.99999 57.5397 2.99999C56.2598 2.99999 55.2581 3.22221 54.5904 3.6111C53.9226 3.99999 53.5331 4.66665 53.5331 5.6111C53.5331 6.22221 53.7556 6.77776 54.2008 7.16665C54.646 7.6111 55.4807 7.99999 56.6493 8.38888L59.8213 9.38888C61.435 9.88888 62.6036 10.6111 63.2714 11.5C63.9392 12.3889 64.2731 13.4444 64.2731 14.6111C64.2731 15.5555 64.0505 16.4444 63.7166 17.1667C63.3271 17.9444 62.7706 18.6111 62.1028 19.1111C61.435 19.6667 60.6003 20.0555 59.6543 20.3333C58.5414 20.7778 57.4841 20.8889 56.3711 20.8889Z" fill="#252F3E"/>
<g id="Group_4">
<path id="Vector_5" fill-rule="evenodd" clip-rule="evenodd" d="M60.6004 31.7222C53.2549 37.1111 42.5705 40 33.4442 40C20.5896 40 9.01484 35.2778 0.278131 27.3889C-0.389643 26.7778 0.222483 25.9444 1.0572 26.3889C10.5173 31.8889 22.1477 35.1667 34.2233 35.1667C42.3479 35.1667 51.3072 33.5 59.5431 30C60.7117 29.5 61.769 30.8333 60.6004 31.7222Z" fill="#FF9900"/>
<path id="Vector_6" fill-rule="evenodd" clip-rule="evenodd" d="M63.6054 28.2778C62.6594 27.0555 57.4285 27.7222 55.0357 28C54.3122 28.1111 54.2009 27.4444 54.8687 27C59.0423 24.0555 65.9426 24.8889 66.7217 25.8889C67.5008 26.8889 66.4991 33.7778 62.6038 37.0555C61.9916 37.5555 61.4352 37.2778 61.7134 36.6111C62.6038 34.3889 64.5514 29.4444 63.6054 28.2778Z" fill="#FF9900"/>
</g>
</g>
</g>
<defs>
<clipPath id="clip0_445_150">
<rect width="67" height="40" fill="white"/>
</clipPath>
</defs>
</svg>
