<svg width="53" height="40" viewBox="0 0 53 40" fill="none" xmlns="http://www.w3.org/2000/svg">
<g id="Google Cloud.svg">
<g id="Vector">
<path d="M32.3942 11.0147H33.9192L38.2655 6.69429L38.479 4.86C35.9892 2.67546 32.9802 1.15793 29.7364 0.450775C26.4925 -0.256383 23.1209 -0.129826 19.9399 0.818491C16.7589 1.76681 13.8737 3.50558 11.5567 5.87055C9.23969 8.23552 7.56744 11.1486 6.69791 14.3347C7.1821 14.1374 7.71846 14.1054 8.22291 14.2437L16.9154 12.8187C16.9154 12.8187 17.3577 12.0911 17.5864 12.1365C19.449 10.1031 22.0229 8.85436 24.7814 8.64581C27.5399 8.43727 30.2743 9.28474 32.4247 11.0147H32.3942Z" fill="#EA4335"/>
<path d="M44.457 14.3346C43.458 10.6776 41.4069 7.39002 38.5553 4.87516L32.4552 10.9389C33.7266 11.9715 34.7454 13.2776 35.4349 14.7587C36.1244 16.2398 36.4665 17.8572 36.4355 19.4889V20.5652C37.1485 20.5652 37.8544 20.7048 38.5131 20.976C39.1718 21.2472 39.7703 21.6447 40.2744 22.1459C40.7785 22.647 41.1784 23.2419 41.4513 23.8967C41.7241 24.5515 41.8645 25.2532 41.8645 25.9619C41.8645 26.6707 41.7241 27.3724 41.4513 28.0272C41.1784 28.682 40.7785 29.2769 40.2744 29.778C39.7703 30.2792 39.1718 30.6767 38.5131 30.9479C37.8544 31.2191 37.1485 31.3587 36.4355 31.3587H25.5775L24.4947 32.4502V38.9233L25.5775 39.9996H36.4355C39.4676 40.023 42.4267 39.0757 44.8752 37.2978C47.3237 35.5199 49.1315 33.0058 50.0311 30.1273C50.9308 27.2489 50.8745 24.1591 49.8706 21.3149C48.8668 18.4708 46.9686 16.0233 44.457 14.3346Z" fill="#4285F4"/>
<path d="M14.7042 39.9389H25.5622V31.2981H14.7042C13.9306 31.2979 13.1661 31.1325 12.4624 30.813L10.9374 31.2829L6.56066 35.6033L6.17941 37.1193C8.6338 38.9616 11.6287 39.9522 14.7042 39.9389Z" fill="#34A853"/>
<path d="M14.7042 11.9091C11.7622 11.9266 8.89912 12.8571 6.5149 14.5705C4.13068 16.284 2.34435 18.6949 1.40543 21.4666C0.46651 24.2382 0.421874 27.2322 1.27776 30.0303C2.13365 32.8284 3.84731 35.2909 6.17941 37.0738L12.4777 30.813C11.6773 30.4535 10.9766 29.9064 10.4357 29.2185C9.8948 28.5307 9.52984 27.7227 9.37215 26.8638C9.21446 26.005 9.26874 25.1209 9.53033 24.2874C9.79192 23.454 10.253 22.6961 10.874 22.0788C11.4951 21.4614 12.2575 21.0031 13.0959 20.743C13.9343 20.483 14.8237 20.429 15.6877 20.5858C16.5517 20.7425 17.3646 21.1053 18.0565 21.643C18.7485 22.1807 19.2988 22.8772 19.6605 23.6729L25.9587 17.412C24.6368 15.6941 22.933 14.3034 20.9805 13.3488C19.0281 12.3942 16.88 11.9014 14.7042 11.9091Z" fill="#FBBC05"/>
</g>
</g>
</svg>
