<svg width="59" height="40" viewBox="0 0 59 40" fill="none" xmlns="http://www.w3.org/2000/svg">
<g id="mysql" clip-path="url(#clip0_386_599)">
<g id="Group">
<g id="Group_2">
<g id="Group_3">
<path id="Vector" d="M14.1796 36.4366H11.9038C11.825 32.5998 11.6062 28.9902 11.2386 25.6167H11.2211L7.7549 36.4366H6.02181L2.57313 25.6167H2.55563C2.30179 28.8591 2.13548 32.4687 2.07421 36.4366H-0.000244141C0.131051 31.6122 0.472417 27.085 1.00635 22.8549H3.82481L7.10718 32.8358H7.12468L10.4246 22.8549H13.1205C13.7244 27.8104 14.0746 32.3376 14.1796 36.4366Z" fill="#00758F"/>
<path id="Vector_2" d="M24.053 26.4207C23.1252 31.4461 21.8997 35.0906 20.3855 37.363C19.2038 39.1197 17.9084 39.9937 16.4991 39.9937C16.1228 39.9937 15.6589 39.8801 15.1074 39.6528V38.4467C15.3788 38.4817 15.6939 38.5079 16.0527 38.5079C16.7092 38.5079 17.2431 38.3244 17.6458 37.966C18.1272 37.5203 18.3723 37.0309 18.3723 36.4803C18.3723 36.1045 18.1797 35.3354 17.8121 34.1642L15.3175 26.4207H17.5495L19.3439 32.2152C19.7465 33.5262 19.9128 34.4526 19.8515 34.9683C20.8319 32.3551 21.5146 29.5059 21.9085 26.4207H24.053Z" fill="#00758F"/>
<path id="Vector_3" d="M34.0226 32.6784C34.0226 33.8321 33.6025 34.776 32.7535 35.5189C31.9044 36.253 30.7753 36.6201 29.3486 36.6201C28.0181 36.6201 26.7314 36.1919 25.4797 35.3528L26.0662 34.1904C27.1428 34.7236 28.1144 34.9945 28.9897 34.9945C29.8125 34.9945 30.4514 34.811 30.9153 34.4526C31.3792 34.0943 31.6593 33.5874 31.6593 32.9406C31.6593 32.1366 31.0991 31.4461 30.0663 30.8693C29.1122 30.3449 27.2041 29.2524 27.2041 29.2524C26.1712 28.5008 25.6548 27.6967 25.6548 26.3595C25.6548 25.2583 26.0399 24.3669 26.8102 23.6939C27.5805 23.0122 28.5783 22.6801 29.8037 22.6801C31.0641 22.6801 32.2108 23.0122 33.2436 23.6852L32.7185 24.8476C31.8344 24.4717 30.9591 24.2882 30.1013 24.2882C29.4011 24.2882 28.8671 24.4543 28.4908 24.7951C28.1144 25.1272 27.8781 25.5555 27.8781 26.0799C27.8781 26.8839 28.4557 27.5831 29.5149 28.1687C30.4777 28.6931 32.4296 29.803 32.4296 29.803C33.4975 30.5547 34.0226 31.3587 34.0226 32.6784Z" fill="#F29111"/>
<path id="Vector_4" fill-rule="evenodd" clip-rule="evenodd" d="M38.0928 33.7272C37.5414 32.8445 37.27 31.4199 37.27 29.4622C37.27 26.0449 38.3116 24.3319 40.3948 24.3319C41.4802 24.3319 42.2855 24.7427 42.7931 25.5555C43.3446 26.4382 43.6159 27.8453 43.6159 29.7768C43.6159 33.2203 42.5743 34.9508 40.4911 34.9508C39.4057 34.9508 38.6005 34.54 38.0928 33.7272ZM46.1893 36.7687L43.686 35.5364C43.9048 35.3528 44.1236 35.1606 44.3074 34.9333C45.3665 33.6835 45.9005 31.8394 45.9005 29.401C45.9005 24.9087 44.1324 22.6626 40.6049 22.6626C38.8718 22.6626 37.5239 23.2307 36.5523 24.3756C35.4932 25.6254 34.9592 27.4608 34.9592 29.8904C34.9592 32.2764 35.4319 34.0244 36.3685 35.1431C37.2262 36.1482 38.5217 36.6551 40.2548 36.6551C40.9025 36.6551 41.4977 36.5764 42.0316 36.4191L45.2878 38.3069L46.1893 36.7687Z" fill="#F29111"/>
<path id="Vector_5" d="M54.3471 36.4366H47.8787V22.8549H50.0582V34.7673H54.3471V36.4366Z" fill="#F29111"/>
<path id="Vector_6" d="M55.905 36.4366H56.2638V35.0557H56.7365V34.776H55.4148V35.0557H55.905V36.4366ZM58.6446 36.4366H58.986V34.776H58.4783L58.0582 35.9122L57.603 34.776H57.1129V36.4366H57.4367V35.1693H57.4542L57.9269 36.4366H58.172L58.6446 35.1693V36.4366Z" fill="#F29111"/>
<path id="Vector_7" fill-rule="evenodd" clip-rule="evenodd" d="M57.0779 18.3102C55.7649 18.2752 54.7408 18.4063 53.8918 18.7734C53.6467 18.8695 53.2528 18.8695 53.2178 19.1841C53.3491 19.3152 53.3666 19.525 53.4804 19.7085C53.673 20.0406 54.0231 20.4776 54.3382 20.7049C54.6796 20.9671 55.0297 21.2293 55.3885 21.4565C56.0275 21.8498 56.754 22.077 57.3755 22.4703C57.7343 22.6976 58.102 22.9947 58.4608 23.2394C58.6447 23.3705 58.7584 23.5803 58.986 23.6677V23.6152C58.8722 23.4667 58.8372 23.2569 58.7234 23.0909C58.5571 22.9248 58.3908 22.7762 58.2333 22.6189C57.7606 21.9809 57.1654 21.4215 56.5264 20.9583C56.0013 20.6 54.8459 20.1018 54.6358 19.4988C54.6358 19.4988 54.6183 19.4813 54.6008 19.4638C54.9597 19.4289 55.3885 19.2978 55.7387 19.2016C56.2989 19.053 56.8065 19.088 57.3842 18.9394C57.6468 18.8695 57.9094 18.7908 58.172 18.7122V18.5636C57.8744 18.2665 57.6643 17.8732 57.3492 17.5935C56.5089 16.8681 55.5899 16.1689 54.6358 15.5746C54.1281 15.2425 53.4716 15.0327 52.929 14.753C52.7364 14.6569 52.4038 14.6045 52.29 14.4384C51.9924 14.0801 51.8261 13.5994 51.616 13.1711C51.1433 12.2709 50.6794 11.2659 50.2681 10.3132C49.9705 9.6752 49.7954 9.03719 49.4278 8.44289C47.7384 5.65488 45.8916 3.9681 43.0731 2.30753C42.4691 1.96667 41.7426 1.8181 40.9724 1.63456C40.561 1.61708 40.1496 1.58212 39.7382 1.57338C39.4756 1.45976 39.213 1.14513 38.9855 0.996552C38.0489 0.402245 35.6331 -0.87377 34.9416 0.813019C34.4952 1.87928 35.598 2.92806 35.9744 3.46993C36.2545 3.84574 36.6134 4.27399 36.8147 4.70224C36.9285 4.98192 36.9635 5.27907 37.0773 5.57623C37.3399 6.30163 37.585 7.10569 37.9351 7.77866C38.1189 8.11951 38.3115 8.48658 38.5391 8.79248C38.6703 8.97602 38.8979 9.05468 38.9504 9.35183C38.7229 9.68394 38.7054 10.1734 38.5741 10.5841C37.9789 12.437 38.2152 14.7356 39.0467 16.099C39.3093 16.5098 39.9308 17.41 40.7711 17.0691C41.5063 16.772 41.3488 15.8368 41.5588 15.0152C41.6114 14.8142 41.5763 14.6831 41.6726 14.552V14.587C41.9002 15.0415 42.1365 15.4872 42.3466 15.9504C42.8543 16.7545 43.7471 17.5935 44.4823 18.1441C44.8762 18.4413 45.1913 18.9482 45.6815 19.1317V19.0793H45.6465C45.5502 18.9307 45.4014 18.8695 45.2701 18.7559C44.9725 18.4587 44.6486 18.1004 44.4123 17.7683C43.7208 16.8506 43.1169 15.828 42.5742 14.7793C42.3116 14.2724 42.084 13.713 41.8652 13.2061C41.7689 13.0138 41.7689 12.7167 41.6026 12.6118C41.3575 12.9701 40.9986 13.2848 40.8148 13.7217C40.4997 14.4297 40.4735 15.2949 40.3509 16.2039C40.2896 16.2213 40.3159 16.2039 40.2897 16.2388C39.7645 16.1077 39.5807 15.5659 39.3881 15.1114C38.8979 13.949 38.8104 12.0787 39.2393 10.7327C39.3531 10.3919 39.852 9.30814 39.6507 8.97602C39.5544 8.66139 39.2218 8.48659 39.0467 8.23314C38.8367 7.9185 38.6003 7.52521 38.4603 7.18436C38.0664 6.26668 37.8651 5.24411 37.4449 4.32643C37.2436 3.89817 36.9022 3.45244 36.6221 3.05915C36.307 2.61342 35.9657 2.30753 35.7206 1.78314C35.6418 1.5996 35.528 1.30245 35.6506 1.11017C35.6856 0.979076 35.7469 0.926636 35.8781 0.900415C36.0882 0.716881 36.7009 0.95285 36.911 1.04899C37.5237 1.2937 38.0314 1.52968 38.5391 1.87053C38.7666 2.03659 39.0117 2.34249 39.3093 2.42989H39.6594C40.1846 2.5435 40.7798 2.46484 41.27 2.61342C42.1365 2.8931 42.933 3.30387 43.6333 3.7496C45.7865 5.11301 47.5634 7.04451 48.7625 9.36057C48.9639 9.73638 49.0426 10.086 49.2264 10.4793C49.5678 11.2833 49.9967 12.1049 50.3468 12.8915C50.6882 13.6606 51.0208 14.4472 51.511 15.0939C51.7561 15.4348 52.7451 15.6183 53.1828 15.8018C53.5067 15.9504 54.0231 16.0815 54.3207 16.2563C54.8809 16.5972 55.4411 16.9904 55.9662 17.375C56.2113 17.576 57.0341 17.9868 57.0779 18.3102Z" fill="#00758F"/>
<path id="Vector_8" fill-rule="evenodd" clip-rule="evenodd" d="M40.3249 4.05551C40.0448 4.05551 39.8522 4.09047 39.6509 4.13417V4.16913H39.6859C39.8172 4.43132 40.0448 4.61486 40.2111 4.84209C40.3424 5.10429 40.4562 5.36648 40.5874 5.62868C40.605 5.6112 40.6225 5.59372 40.6225 5.59372C40.85 5.42766 40.9726 5.16546 40.9726 4.77217C40.8763 4.65855 40.8588 4.54494 40.7713 4.43132C40.6662 4.26527 40.4562 4.18661 40.3249 4.05551Z" fill="#00758F"/>
</g>
</g>
</g>
</g>
<defs>
<clipPath id="clip0_386_599">
<rect width="59" height="40" fill="white"/>
</clipPath>
</defs>
</svg>
