<svg width="40" height="40" viewBox="0 0 40 40" fill="none" xmlns="http://www.w3.org/2000/svg">
<g clip-path="url(#clip0_400_383)">
<path fill-rule="evenodd" clip-rule="evenodd" d="M21.9334 0.253566L21.1094 10.3962C20.729 10.3328 20.3487 10.3328 19.9049 10.3328C19.3978 10.3328 18.8906 10.3962 18.4469 10.4596L18.0032 5.57845C18.0032 5.45166 18.13 5.26149 18.2567 5.26149H19.0808L18.7005 0.316957C18.7005 0.190174 18.8273 0 18.954 0H21.6799C21.87 0 21.9968 0.126783 21.9334 0.253566ZM15.0872 0.760697C15.0238 0.633914 14.897 0.507132 14.7702 0.570523L12.2345 1.52139C12.0444 1.58479 11.981 1.77496 12.0444 1.90174L14.1363 6.40254L13.3756 6.71949C13.2488 6.78288 13.1854 6.90967 13.2488 7.09984L15.3407 11.5372C16.1014 11.0935 16.9255 10.7765 17.813 10.5864L15.0872 0.760697ZM8.8748 3.61331L14.7702 11.9176C14.0095 12.4247 13.3756 12.9952 12.8051 13.6292L9.19176 10.1426C9.06498 10.0158 9.06498 9.82567 9.19176 9.76228L9.82567 9.25515L6.33914 5.70523C6.21236 5.57845 6.21236 5.38827 6.33914 5.32488L8.43106 3.61331C8.55785 3.42314 8.74802 3.48653 8.8748 3.61331ZM3.93027 8.36767C3.80349 8.30428 3.61331 8.30428 3.54992 8.43106L2.2187 10.7765C2.15531 10.9033 2.2187 11.0935 2.34548 11.1569L6.84628 13.3122L6.40254 14.0095C6.33914 14.1363 6.40254 14.3265 6.52932 14.3899L11.0301 16.4184C11.3471 15.5943 11.7908 14.8336 12.2979 14.1363L3.93027 8.36767ZM0.570523 14.7702C0.570523 14.6434 0.760697 14.5166 0.88748 14.58L10.7132 17.1157C10.4596 17.9398 10.3328 18.8273 10.2694 19.7147L5.32488 19.3344C5.1981 19.3344 5.07132 19.2076 5.07132 19.0174L5.1981 18.1933L0.380349 17.7496C0.253566 17.7496 0.126783 17.6228 0.126783 17.4326L0.570523 14.7702ZM0.253566 21.4263C0.0633914 21.4263 0 21.5531 0 21.7433L0.507132 24.4057C0.507132 24.5325 0.697306 24.6593 0.824089 24.5959L5.64184 23.3281L5.76862 24.1521C5.76862 24.2789 5.9588 24.4057 6.08558 24.3423L10.8399 23.0111C10.5864 22.187 10.3962 21.2995 10.3328 20.412L0.253566 21.4263ZM1.83835 28.4628C1.77496 28.336 1.83835 28.1458 1.96513 28.0824L11.1569 23.7084C11.4739 24.5325 11.981 25.2932 12.5515 25.9905L8.55784 28.8431C8.43106 28.9065 8.24089 28.9065 8.1775 28.7797L7.60697 28.0824L3.48653 30.935C3.35975 30.9984 3.16957 30.9984 3.10618 30.8716L1.83835 28.4628ZM12.9319 26.561L5.76862 33.7876C5.64184 33.9144 5.64184 34.1046 5.76862 34.168L7.86054 35.8796C7.98732 36.0063 8.1775 35.9429 8.24089 35.8162L11.1569 31.7591L11.7908 32.3296C11.9176 32.4564 12.1078 32.393 12.1712 32.2662L14.9604 28.2092C14.1997 27.7655 13.5024 27.1949 12.9319 26.561ZM11.5372 38.0983C11.4105 38.0349 11.3471 37.9081 11.4105 37.7179L15.5943 28.5261C16.355 28.9065 17.2425 29.2235 18.0666 29.4136L16.7987 34.168C16.7353 34.2948 16.6086 34.4216 16.4818 34.3582L15.7211 34.0412L14.3899 38.859C14.3265 38.9857 14.1997 39.1125 14.0729 39.0491L11.5372 38.0983ZM18.7639 29.5404L17.9398 39.683C17.9398 39.8098 18.0666 40 18.1933 40H20.9192C21.046 40 21.1727 39.8732 21.1727 39.683L20.7924 34.7385H21.6165C21.7433 34.7385 21.87 34.6117 21.87 34.4216L21.4263 29.5404C20.9192 29.6038 20.4754 29.6672 19.9683 29.6672C19.588 29.6038 19.1442 29.6038 18.7639 29.5404ZM28.5895 2.15531C28.6529 2.02853 28.5895 1.83835 28.4628 1.77496L25.9271 0.824089C25.8003 0.760697 25.6101 0.88748 25.6101 1.01426L24.2789 5.83201L23.5182 5.51506C23.3914 5.45166 23.2013 5.57845 23.2013 5.70523L21.9334 10.4596C22.8209 10.6498 23.645 10.9667 24.4057 11.3471L28.5895 2.15531ZM34.168 6.14897L27.0048 13.3756C26.4342 12.7417 25.7369 12.1712 24.9762 11.7274L27.7655 7.67036C27.8288 7.54358 28.019 7.54358 28.1458 7.60697L28.7797 8.1775L31.6957 4.12044C31.7591 3.99366 31.9493 3.99366 32.0761 4.05705L34.168 5.76862C34.2314 5.8954 34.2314 6.08558 34.168 6.14897ZM37.9715 11.8542C38.0983 11.7908 38.1616 11.6006 38.0983 11.4739L36.767 9.12837C36.7036 9.00158 36.5135 8.93819 36.3867 9.06498L32.2662 11.9176L31.8225 11.2203C31.7591 11.0935 31.5689 11.0301 31.4422 11.1569L27.4485 13.9461C28.019 14.6434 28.4628 15.4041 28.8431 16.2282L37.9715 11.8542ZM39.4295 15.5309L39.8732 18.1933C39.8732 18.3201 39.8098 18.5103 39.6197 18.5103L29.5404 19.4612C29.477 18.5737 29.2868 17.6862 29.0333 16.8621L33.7876 15.5309C33.9144 15.4675 34.1046 15.5943 34.1046 15.7211L34.2314 16.5452L39.0491 15.2773C39.2393 15.2773 39.3661 15.4041 39.4295 15.5309ZM38.9857 25.3566C39.1125 25.42 39.3027 25.2932 39.3027 25.1664L39.7464 22.504C39.7464 22.3772 39.683 22.187 39.4929 22.187L34.5483 21.7433L34.6751 20.9192C34.6751 20.7924 34.6117 20.6022 34.4216 20.6022L29.477 20.2219C29.477 21.1094 29.2868 21.9968 29.0333 22.8209L38.9857 25.3566ZM36.3867 31.4422C36.3233 31.5689 36.1331 31.6323 36.0063 31.5055L27.6387 25.7369C28.1458 25.0396 28.5895 24.2789 28.9065 23.4548L33.4073 25.4834C33.5341 25.5468 33.5975 25.7369 33.5341 25.8637L33.0903 26.6244L37.5911 28.7797C37.7179 28.8431 37.7813 29.0333 37.7179 29.1601L36.3867 31.4422ZM25.1664 28.019L31.0618 36.3233C31.1252 36.4501 31.3154 36.4501 31.4422 36.3867L33.5341 34.6751C33.6609 34.5483 33.6609 34.4216 33.5341 34.2948L30.0475 30.7448L30.6815 30.2377C30.8082 30.1109 30.8082 29.9841 30.6815 29.8574L27.1949 26.3708C26.6244 27.0048 25.9271 27.5753 25.1664 28.019ZM25.1664 39.3027C25.0396 39.3661 24.8494 39.2393 24.8494 39.1125L22.187 29.3502C23.0745 29.1601 23.8986 28.8431 24.6593 28.3994L26.7512 32.8368C26.8146 32.9636 26.7512 33.1537 26.6244 33.2171L25.8637 33.5341L27.9556 38.0349C28.019 38.1616 27.9556 38.3518 27.8288 38.4152L25.1664 39.3027Z" fill="black"/>
</g>
<defs>
<clipPath id="clip0_400_383">
<rect width="39.8732" height="40" fill="white"/>
</clipPath>
</defs>
</svg>
