<svg width="277" height="36" viewBox="0 0 277 36" fill="none" xmlns="http://www.w3.org/2000/svg">
<g clip-path="url(#clip0_406_143)">
<path d="M119.837 23.4H138.08L128.419 7.8L110.656 35.94H102.615L124.218 2.16C125.838 -0.180005 129.079 -0.720005 131.359 0.899995C131.839 1.26 132.259 1.62 132.619 2.1L154.282 35.94H146.241L142.461 29.64H123.978L119.837 23.4ZM203.729 29.7V0.359995H196.888V32.58C196.888 33.48 197.249 34.38 197.909 34.98C198.569 35.64 199.469 36 200.429 36H231.574L235.654 29.7H203.729ZM90.3731 24.42C97.0341 24.42 102.435 19.02 102.435 12.36C102.435 5.7 97.0341 0.299995 90.3731 0.299995H60.4288V35.94H67.2098V6.66H89.893C93.0735 6.66 95.6539 9.24 95.6539 12.42C95.6539 15.6 93.0735 18.18 89.893 18.18H70.5703L91.0332 35.94H100.995L87.2527 24.42H90.3731ZM18.3027 35.94H39.0057C48.8471 35.7 56.5882 27.48 56.3482 17.7C56.1082 8.22 48.4271 0.599995 39.0057 0.359995H18.3027C8.46128 0.119995 0.240098 7.86 6.33877e-05 17.7C-0.239971 27.54 7.50115 35.7 17.3426 35.94C17.6426 36 17.9427 36 18.3027 35.94ZM38.5256 29.7H18.7228C12.3618 29.52 7.38113 24.18 7.56116 17.82C7.74118 11.76 12.6619 6.84 18.7228 6.66H38.5256C44.8865 6.48 50.2273 11.46 50.4073 17.82C50.5874 24.18 45.6066 29.52 39.2457 29.7C39.0057 29.7 38.7657 29.7 38.5256 29.7ZM168.564 35.94H189.687L193.708 29.7H169.044C162.684 29.88 157.343 24.9 157.163 18.54C156.983 12.18 161.963 6.84 168.324 6.66C168.564 6.66 168.804 6.66 169.044 6.66H189.147L193.228 0.359995H168.624C158.783 0.119995 150.622 7.86 150.382 17.7C150.142 27.54 157.883 35.7 167.724 35.94C167.964 36 168.264 36 168.564 35.94ZM252.337 29.7C247.176 29.7 242.615 26.28 241.235 21.3H270.519L274.54 15H241.235C242.615 10.02 247.176 6.6 252.337 6.6H272.439L276.46 0.299995H251.856C242.015 0.599995 234.274 8.76 234.514 18.6C234.754 28.08 242.375 35.7 251.856 35.94H272.979L277 29.7H252.337Z" fill="#C74634"/>
</g>
<defs>
<clipPath id="clip0_406_143">
<rect width="277" height="36" fill="white"/>
</clipPath>
</defs>
</svg>
