<svg width="72" height="41" viewBox="0 0 72 41" fill="none" xmlns="http://www.w3.org/2000/svg">
<g clip-path="url(#clip0_402_459)">
<path d="M8.12472 0.178436C3.47439 0.178436 0 3.6451 0 8.1251C0 13.0318 3.47439 14.8984 7.37639 16.0718C11.0646 17.2451 12.7751 18.5251 12.7751 21.0318C12.7751 23.5918 10.8508 25.4051 8.33853 25.4051C5.82628 25.4051 3.63474 23.5918 3.63474 20.8184C3.63474 19.2718 4.38307 18.8984 4.38307 18.0451C4.38307 17.0851 3.6882 16.3384 2.5657 16.3384C1.28285 16.3384 0 18.2584 0 21.0318C0 25.4584 3.7951 28.7118 8.33853 28.7118C12.9354 28.7118 16.4633 25.2451 16.4633 20.7651C16.4633 15.9118 12.9889 13.9918 9.03341 12.8184C5.39866 11.6984 3.63474 10.3651 3.63474 7.85844C3.63474 5.35177 5.50557 3.53844 8.01782 3.53844C10.637 3.53844 12.7216 5.4051 12.7751 7.91177C12.8285 9.0851 13.6303 9.77844 14.5924 9.77844C15.5546 9.77844 16.4633 9.0851 16.4098 7.85844C16.3563 3.37844 12.6147 0.178436 8.12472 0.178436ZM26.6192 28.6584C28.6503 28.6584 30.2539 27.9651 30.2539 26.5784C30.2539 25.5651 29.3987 24.8718 28.5969 24.8718C28.0089 24.8718 27.5813 25.1384 26.6192 25.1384C23.9465 25.1384 21.8619 22.8451 21.8619 20.1784C21.8619 17.2984 24 15.0051 26.6726 15.0051C29.7194 15.0051 31.6437 17.2984 31.6437 20.6584V26.8451C31.6437 27.9118 32.4989 28.6584 33.5145 28.6584C34.4766 28.6584 35.3318 27.9118 35.3318 26.8451V20.6051C35.3318 15.4318 31.804 11.6984 26.7795 11.6984C22.0757 11.6984 18.2272 15.3251 18.2272 20.2318C18.1737 24.9251 22.0223 28.6584 26.6192 28.6584ZM45.3808 40.1784C49.9777 40.1784 53.5056 36.7118 53.5056 32.2318C53.5056 27.3251 50.0312 25.4584 46.0757 24.2851C42.441 23.1118 40.6771 21.8318 40.6771 19.3251C40.6771 16.8184 42.6013 14.9518 45.0601 14.9518C47.5724 14.9518 49.8174 16.7651 49.8174 19.5384C49.8174 21.0851 49.069 21.4584 49.069 22.3118C49.069 23.2718 49.7639 24.0184 50.833 24.0184C52.1693 24.0184 53.5056 22.0984 53.5056 19.3251C53.5056 14.8984 49.657 11.6451 45.1136 11.6451C40.5167 11.6451 37.0423 15.1118 37.0423 19.5918C37.0423 24.4451 40.5167 26.3651 44.4187 27.5384C48.1069 28.6584 49.8174 29.9918 49.8174 32.4984C49.8174 35.0584 47.8931 36.8184 45.4343 36.8184C42.7617 36.8184 40.7305 35.0051 40.6771 32.4451C40.6236 31.2718 39.7684 30.6318 38.8597 30.6318C37.8975 30.6318 36.9889 31.2718 37.0423 32.4984C37.0958 37.0318 40.784 40.1784 45.3808 40.1784ZM63.8753 28.6584C66.2806 28.6584 68.1514 27.9651 69.4343 27.1651C70.7171 26.3651 71.1982 25.6718 71.1982 24.8718C71.1982 24.0718 70.6102 23.3251 69.4878 23.3251C68.1515 23.3251 67.0824 25.2984 63.8753 25.2984C61.0423 25.2984 58.7439 23.0051 58.7439 20.1251C58.7439 17.2984 60.9354 14.9518 63.6615 14.9518C66.6013 14.9518 68.2049 16.8718 68.2049 18.1518C68.2049 18.5251 67.9376 18.6851 67.6169 18.6851H64.0356C63.0735 18.6851 62.3252 19.3251 62.3252 20.1784C62.3252 21.1384 63.0735 21.8318 64.0356 21.8318H68.9532C70.8241 21.8318 72 20.8718 72 19.1651C72 14.9518 68.4187 11.6451 63.6615 11.6451C58.9577 11.6451 55.1626 15.4318 55.1626 20.1251C55.1626 24.8184 59.118 28.6584 63.8753 28.6584Z" fill="#00D639"/>
</g>
<defs>
<clipPath id="clip0_402_459">
<rect width="72" height="40" fill="white" transform="translate(0 0.178436)"/>
</clipPath>
</defs>
</svg>
