<svg width="58" height="40" viewBox="0 0 58 40" fill="none" xmlns="http://www.w3.org/2000/svg">
<g id="salesforce_logo.svg" clip-path="url(#clip0_384_14)">
<g id="Group">
<g id="Mask group">
<mask id="mask0_384_14" style="mask-type:luminance" maskUnits="userSpaceOnUse" x="0" y="0" width="58" height="40">
<g id="Group_2">
<path id="Vector" d="M0.345932 0.104706H57.4911V39.9874H0.345932V0.104706Z" fill="white"/>
</g>
</mask>
<g mask="url(#mask0_384_14)">
<path id="Vector_2" fill-rule="evenodd" clip-rule="evenodd" d="M24.1189 4.45591C25.9622 2.54094 28.5287 1.35266 31.3671 1.35266C35.1399 1.35266 38.4321 3.45067 40.1846 6.56565C41.7527 5.86692 43.4513 5.50679 45.1688 5.50889C51.9741 5.50889 57.4911 11.0584 57.4911 17.9045C57.4911 24.7506 51.9741 30.3003 45.1688 30.3003C44.3378 30.3003 43.5263 30.217 42.7413 30.059C41.1979 32.8044 38.2557 34.6597 34.8795 34.6597C33.5139 34.6616 32.166 34.3522 30.9386 33.7552C29.374 37.4262 25.7274 40 21.4786 40C17.053 40 13.2812 37.208 11.8344 33.2921C11.1896 33.4278 10.5324 33.496 9.87335 33.4957C4.60435 33.4957 0.333336 29.192 0.333336 23.8833C0.333336 20.3252 2.25201 17.2188 5.10376 15.5571C4.49956 14.1697 4.18864 12.673 4.19042 11.1604C4.19042 5.05465 9.16078 0.104706 15.2919 0.104706C18.8915 0.104706 22.0906 1.81109 24.1189 4.45591Z" fill="#00A1E0"/>
</g>
</g>
<path id="Vector_3" fill-rule="evenodd" clip-rule="evenodd" d="M8.61201 20.7935C8.5761 20.8869 8.62482 20.9064 8.63637 20.9229C8.74369 21.0004 8.85268 21.0566 8.96273 21.1196C9.54552 21.4272 10.0964 21.5175 10.6718 21.5175C11.8443 21.5175 12.5726 20.8959 12.5726 19.8949V19.8752C12.5726 18.9495 11.7504 18.6132 10.9799 18.3705L10.8793 18.338C10.2982 18.15 9.79669 17.9872 9.79669 17.6055V17.586C9.79669 17.2591 10.0899 17.0189 10.5441 17.0189C11.0492 17.0189 11.6477 17.1862 12.0337 17.3988C12.0337 17.3988 12.1476 17.4721 12.1889 17.3625C12.2114 17.3033 12.4065 16.7793 12.4273 16.7225C12.4496 16.6612 12.4105 16.6149 12.3704 16.591C11.9296 16.3232 11.3207 16.141 10.6905 16.141L10.5735 16.1414C9.50036 16.1414 8.75104 16.7885 8.75104 17.7146V17.7345C8.75104 18.7104 9.57765 19.0277 10.352 19.2482L10.4763 19.2867C11.0402 19.4593 11.5272 19.6084 11.5272 20.004V20.0237C11.5272 20.386 11.2107 20.6551 10.701 20.6551C10.5034 20.6551 9.8725 20.6517 9.1908 20.2218C9.10827 20.1738 9.06123 20.1393 8.99759 20.1005C8.96399 20.0802 8.87999 20.0436 8.84344 20.1533L8.61201 20.7935ZM25.7763 20.7935C25.7404 20.8869 25.7891 20.9064 25.8011 20.9229C25.908 21.0004 26.0172 21.0566 26.127 21.1196C26.71 21.4272 27.2609 21.5175 27.8361 21.5175C29.0086 21.5175 29.7371 20.8959 29.7371 19.8949V19.8752C29.7371 18.9495 28.9151 18.6132 28.1444 18.3705L28.0438 18.338C27.4627 18.15 26.961 17.9872 26.961 17.6055V17.586C26.961 17.2591 27.2544 17.0189 27.7088 17.0189C28.2137 17.0189 28.812 17.1862 29.198 17.3988C29.198 17.3988 29.3119 17.4721 29.3534 17.3625C29.3757 17.3033 29.571 16.7793 29.5916 16.7225C29.6141 16.6612 29.5748 16.6149 29.5349 16.591C29.0939 16.3232 28.4853 16.141 27.855 16.141L27.7378 16.1414C26.6649 16.1414 25.9155 16.7885 25.9155 17.7146V17.7345C25.9155 18.7104 26.7419 19.0277 27.5165 19.2482L27.6406 19.2867C28.2047 19.4593 28.6917 19.6084 28.6917 20.004V20.0237C28.6917 20.386 28.375 20.6551 27.8657 20.6551C27.6677 20.6551 27.0368 20.6517 26.3553 20.2218C26.2728 20.1738 26.2245 20.1408 26.1619 20.1005C26.1407 20.0871 26.0418 20.0486 26.008 20.1533L25.7763 20.7935ZM37.4939 18.8325C37.4939 19.3979 37.3881 19.8444 37.1802 20.1592C36.9735 20.4712 36.6617 20.6231 36.2267 20.6231C35.7918 20.6231 35.4816 20.4714 35.2783 20.1596C35.0731 19.8446 34.969 19.3979 34.969 18.8325C34.969 18.2675 35.0731 17.8224 35.2783 17.5108C35.4816 17.2019 35.7918 17.052 36.2267 17.052C36.6617 17.052 36.9735 17.2021 37.1802 17.511C37.3885 17.8224 37.4939 18.2675 37.4939 18.8325ZM38.473 17.7839C38.3766 17.4595 38.2269 17.1741 38.0276 16.9359C37.8279 16.6972 37.5752 16.5052 37.2757 16.3661C36.9767 16.2268 36.6239 16.1562 36.2267 16.1562C35.8296 16.1562 35.4766 16.2268 35.1773 16.3661C34.8782 16.5052 34.6254 16.6972 34.4257 16.9364C34.2266 17.1749 34.0764 17.4599 33.9804 17.7839C33.8849 18.1058 33.8364 18.4587 33.8364 18.8325C33.8364 19.2065 33.8849 19.5596 33.9804 19.8811C34.0764 20.2048 34.2261 20.4901 34.4259 20.729C34.6256 20.9682 34.8791 21.1586 35.1777 21.2943C35.4772 21.43 35.83 21.4991 36.2267 21.4991C36.6236 21.4991 36.9761 21.43 37.2753 21.2943C37.5744 21.1586 37.8274 20.9682 38.0276 20.729C38.2269 20.4909 38.3766 20.2053 38.473 19.8811C38.5684 19.559 38.6169 19.2061 38.6169 18.8325C38.6169 18.4591 38.5684 18.106 38.473 17.7839ZM46.5096 20.4716C46.4774 20.3768 46.3846 20.4126 46.3846 20.4126C46.2424 20.4668 46.0912 20.5171 45.9295 20.5422C45.7665 20.5678 45.5861 20.5805 45.3931 20.5805C44.92 20.5805 44.543 20.44 44.274 20.1623C44.0037 19.8844 43.8519 19.4354 43.8535 18.8281C43.855 18.276 43.989 17.8601 44.2292 17.5431C44.4674 17.2281 44.8311 17.0664 45.3148 17.0664C45.7186 17.0664 46.0267 17.1131 46.3495 17.214C46.3495 17.214 46.4262 17.2473 46.4629 17.1466C46.5488 16.9093 46.6122 16.7405 46.7038 16.4798C46.7299 16.4055 46.666 16.374 46.6427 16.365C46.5159 16.3156 46.2162 16.2346 45.99 16.2004C45.7785 16.1682 45.5313 16.1514 45.2556 16.1514C44.8446 16.1514 44.4781 16.2216 44.1648 16.3606C43.8521 16.4995 43.5868 16.6913 43.3766 16.9299C43.1664 17.1688 43.0063 17.4543 42.9005 17.778C42.7944 18.1001 42.7409 18.4536 42.7409 18.8285C42.7409 19.6379 42.9599 20.292 43.3919 20.7711C43.8254 21.252 44.4756 21.4961 45.3242 21.4961C45.8255 21.4961 46.3399 21.395 46.7103 21.2497C46.7103 21.2497 46.7809 21.2157 46.7502 21.1336L46.5096 20.4716ZM48.222 18.2903C48.2688 17.9759 48.3551 17.7148 48.4898 17.5108C48.6928 17.2019 49.002 17.0316 49.4369 17.0316C49.8721 17.0316 50.1587 17.2021 50.3654 17.511C50.5019 17.7152 50.5615 17.9872 50.5848 18.2907L48.222 18.2903ZM51.5169 17.5998C51.4335 17.2869 51.2281 16.9709 51.0931 16.8264C50.8799 16.5973 50.6712 16.4369 50.4639 16.3483C50.1639 16.2212 49.8412 16.1558 49.5153 16.1562C49.1017 16.1562 48.726 16.226 48.4213 16.3684C48.1161 16.5112 47.8597 16.7064 47.6587 16.9489C47.4573 17.1912 47.3063 17.4796 47.2099 17.8067C47.1133 18.132 47.0646 18.4865 47.0646 18.861C47.0646 19.2417 47.1152 19.5967 47.2148 19.9158C47.3154 20.2377 47.4769 20.5202 47.6949 20.7554C47.9126 20.9914 48.193 21.1766 48.528 21.3056C48.8613 21.4344 49.2662 21.5012 49.7305 21.4997C50.6877 21.4966 51.1911 21.2838 51.3991 21.1692C51.4358 21.1487 51.4705 21.1133 51.4272 21.0113L51.2105 20.4065C51.1773 20.3162 51.0857 20.3489 51.0857 20.3489C50.8482 20.4373 50.512 20.595 49.7257 20.5933C49.212 20.5925 48.8314 20.4411 48.5922 20.2046C48.3476 19.9627 48.2275 19.6076 48.2071 19.1058L51.5194 19.1083C51.5194 19.1083 51.6068 19.1075 51.6158 19.0224C51.6194 18.9872 51.7294 18.3439 51.5169 17.5998ZM21.6893 18.2903C21.7361 17.9759 21.8226 17.7148 21.957 17.5108C22.1603 17.2019 22.469 17.0316 22.9044 17.0316C23.3395 17.0316 23.6262 17.2021 23.8329 17.511C23.9692 17.7152 24.0288 17.9872 24.0521 18.2907L21.6893 18.2903ZM24.9841 17.5998C24.901 17.2869 24.6954 16.9709 24.5605 16.8264C24.3474 16.5973 24.1388 16.4369 23.9314 16.3483C23.6313 16.2212 23.3087 16.1559 22.9827 16.1562C22.5692 16.1562 22.1935 16.226 21.8888 16.3684C21.5836 16.5112 21.3272 16.7064 21.1258 16.9489C20.9248 17.1912 20.7738 17.4796 20.677 17.8067C20.5806 18.132 20.5321 18.4865 20.5321 18.861C20.5321 19.2417 20.5823 19.5967 20.6825 19.9158C20.7828 20.2377 20.9446 20.5202 21.1621 20.7554C21.3801 20.9914 21.6603 21.1766 21.9952 21.3056C22.3287 21.4344 22.7332 21.5012 23.198 21.4997C24.155 21.4966 24.6586 21.2838 24.8665 21.1692C24.9031 21.1487 24.9379 21.1133 24.8945 21.0113L24.6779 20.4065C24.6446 20.3162 24.553 20.3489 24.553 20.3489C24.3157 20.4373 23.9794 20.595 23.1929 20.5933C22.6795 20.5925 22.2987 20.4411 22.0595 20.2046C21.8151 19.9627 21.6947 19.6076 21.6743 19.1058L24.9869 19.1083C24.9869 19.1083 25.0742 19.1075 25.0833 19.0224C25.0868 18.9872 25.1969 18.3439 24.9841 17.5998ZM14.5285 20.4536C14.3985 20.3502 14.3804 20.3248 14.3374 20.2576C14.2716 20.1565 14.238 20.0124 14.238 19.8279C14.238 19.5378 14.3346 19.3288 14.5337 19.1885C14.5316 19.1889 14.8193 18.941 15.4945 18.9498C15.7957 18.9551 16.0962 18.9806 16.394 19.0262V20.5278H16.3944C16.3944 20.5278 15.9734 20.618 15.4994 20.6465C14.8256 20.6869 14.5264 20.453 14.5285 20.4536ZM15.8467 18.132C15.7123 18.1221 15.5382 18.1173 15.3295 18.1173C15.0457 18.1173 14.7713 18.1525 14.5136 18.2216C14.2548 18.2911 14.0221 18.3988 13.822 18.5414C13.622 18.6839 13.4575 18.8703 13.3413 19.0863C13.2239 19.3043 13.164 19.5604 13.164 19.8476C13.164 20.1405 13.2151 20.3944 13.3159 20.6017C13.4145 20.8073 13.563 20.985 13.7479 21.119C13.932 21.2526 14.1593 21.3506 14.4228 21.4105C14.683 21.4698 14.9779 21.4997 15.3001 21.4997C15.6403 21.4997 15.9786 21.4712 16.3064 21.4161C16.5857 21.3682 16.8639 21.3143 17.1408 21.2545C17.2513 21.2291 17.3731 21.1958 17.3731 21.1958C17.455 21.1751 17.4487 21.0878 17.4487 21.0878L17.4468 18.0666C17.4468 17.404 17.2696 16.9131 16.9203 16.6082C16.5727 16.3047 16.0609 16.1514 15.3988 16.1514C15.1501 16.1514 14.7507 16.1849 14.5108 16.2329C14.5108 16.2329 13.7876 16.3728 13.4898 16.6055C13.4898 16.6055 13.4242 16.6457 13.4599 16.7368L13.6945 17.365C13.7237 17.4465 13.8033 17.4187 13.8033 17.4187C13.8033 17.4187 13.8283 17.4088 13.8577 17.3914C14.4949 17.0459 15.3011 17.0561 15.3011 17.0561C15.659 17.0561 15.9347 17.1284 16.1199 17.2698C16.3008 17.4082 16.3925 17.6166 16.3925 18.057V18.1967C16.1084 18.1556 15.8467 18.132 15.8467 18.132ZM42.5676 16.43C42.5724 16.4189 42.5749 16.407 42.575 16.395C42.575 16.383 42.5727 16.3711 42.568 16.36C42.5634 16.3489 42.5566 16.3388 42.5479 16.3304C42.5393 16.322 42.5291 16.3154 42.5179 16.311C42.4614 16.2897 42.1797 16.2304 41.9626 16.217C41.5461 16.191 41.3153 16.261 41.1082 16.3539C40.9029 16.4463 40.6754 16.5956 40.5486 16.7659L40.5481 16.363C40.5481 16.3077 40.5089 16.2631 40.453 16.2631H39.6037C39.5487 16.2631 39.5088 16.3077 39.5088 16.363V21.2911C39.5089 21.3177 39.5195 21.3432 39.5383 21.362C39.5572 21.3808 39.5827 21.3914 39.6094 21.3914H40.4799C40.5065 21.3914 40.5321 21.3808 40.5509 21.362C40.5697 21.3432 40.5803 21.3177 40.5803 21.2911V18.8293C40.5803 18.4987 40.6168 18.1692 40.6897 17.9621C40.7615 17.7571 40.8592 17.5937 40.9801 17.4762C41.0948 17.3629 41.2351 17.2787 41.3892 17.2308C41.5337 17.1895 41.6833 17.1684 41.8336 17.1684C42.0069 17.1684 42.1976 17.2128 42.1976 17.2128C42.2614 17.2199 42.2969 17.181 42.3186 17.1236C42.3755 16.9726 42.5368 16.52 42.5676 16.43Z" fill="#FFFFFE"/>
<path id="Vector_4" fill-rule="evenodd" clip-rule="evenodd" d="M34.3975 14.1462C34.2901 14.1138 34.1807 14.0879 34.0701 14.0687C33.9213 14.0439 33.7707 14.0323 33.6199 14.0339C33.0207 14.0339 32.5484 14.2027 32.2168 14.5361C31.8875 14.867 31.6634 15.3711 31.551 16.0344L31.5105 16.2582H30.7584C30.7584 16.2582 30.6667 16.2545 30.6473 16.3544L30.5239 17.0413C30.5152 17.107 30.5436 17.1481 30.6318 17.1477H31.3639L30.6211 21.2823C30.5629 21.6153 30.4963 21.8892 30.4226 22.0968C30.35 22.3016 30.279 22.4551 30.1916 22.5665C30.107 22.6744 30.0268 22.7537 29.8884 22.8C29.7741 22.8383 29.6426 22.8559 29.4986 22.8559C29.4183 22.8559 29.3117 22.8425 29.2329 22.8268C29.1542 22.8113 29.1132 22.7937 29.0542 22.769C29.0542 22.769 28.9683 22.7363 28.9345 22.8222C28.907 22.8924 28.7119 23.4274 28.6888 23.4936C28.6652 23.559 28.6982 23.6105 28.7398 23.6253C28.8372 23.6601 28.9097 23.6823 29.0424 23.7135C29.2268 23.7569 29.3822 23.7596 29.5278 23.7596C29.8327 23.7596 30.1105 23.7169 30.3409 23.6339C30.5728 23.5504 30.7746 23.4048 30.9531 23.2078C31.1461 22.9952 31.2675 22.7726 31.3836 22.4689C31.4985 22.168 31.5964 21.7944 31.6747 21.359L32.4211 17.1477H33.5123C33.5123 17.1477 33.6043 17.151 33.6234 17.0515L33.7469 16.3646C33.7555 16.2989 33.7274 16.2578 33.6388 16.2582H32.5797C32.5849 16.2344 32.633 15.8628 32.7546 15.5131C32.8065 15.3638 32.9041 15.2434 32.9869 15.1606C33.0641 15.0818 33.1593 15.0228 33.2643 14.9885C33.3794 14.953 33.4994 14.9358 33.6199 14.9374C33.7196 14.9374 33.8175 14.9493 33.892 14.9648C33.9947 14.9866 34.0346 14.9981 34.0615 15.0061C34.1695 15.039 34.1839 15.0071 34.2052 14.955L34.4584 14.2614C34.4845 14.1868 34.4211 14.1554 34.3975 14.1462ZM19.5971 21.2911C19.5971 21.3464 19.5576 21.3914 19.5022 21.3914H18.6237C18.5681 21.3914 18.5286 21.3464 18.5286 21.2911V14.2402C18.5286 14.1851 18.5681 14.1405 18.6237 14.1405H19.5022C19.5576 14.1405 19.5971 14.1851 19.5971 14.2402V21.2911Z" fill="#FFFFFE"/>
</g>
</g>
<defs>
<clipPath id="clip0_384_14">
<rect width="57.3333" height="40" fill="white" transform="translate(0.333336)"/>
</clipPath>
</defs>
</svg>
