<svg width="122" height="60" viewBox="0 0 122 60" fill="none" xmlns="http://www.w3.org/2000/svg">
<g clip-path="url(#clip0_378_24)">
<path fill-rule="evenodd" clip-rule="evenodd" d="M0 60H61.6703L122 0H0V60Z" fill="url(#paint0_linear_378_24)"/>
<path fill-rule="evenodd" clip-rule="evenodd" d="M72.3956 12H60.3297V40.1333L49.8725 12H39.4154L30.433 35.6C29.4945 29.6 23.1934 27.6 18.367 26C15.1495 24.9333 11.6637 23.4667 11.7978 21.7333C11.7978 20.4 13.6747 19.0667 17.2945 19.2C19.7077 19.3333 21.8528 19.4667 26.1429 21.6L30.2989 14.4C26.411 12.4 21.0484 11.2 16.7582 11.2C11.6637 11.2 7.37363 12.8 4.69231 15.6C2.81539 17.4667 1.87693 19.8667 1.87693 22.5333C1.87693 26.1333 3.21759 28.8 6.03297 30.9333C8.44616 32.6667 11.5297 33.8667 14.211 34.6667C17.5626 35.7333 20.244 36.5333 20.244 38.5333C20.244 39.2 19.9758 39.8667 19.4396 40.4C18.6352 41.2 17.2945 41.6 15.5517 41.6C11.9319 41.4667 9.38462 40.9333 5.36264 38.6667L1.6088 46C5.63077 48.2667 9.92088 49.4667 14.7473 49.4667H15.8198C19.9758 49.3333 23.4615 48.4 26.1429 46.2667C26.2769 46.1333 26.411 46 26.5451 45.8667L26.2769 48H36.4659L38.3429 43.3333C40.2198 44 42.4989 44.4 44.778 44.4C47.0571 44.4 49.2022 44 51.0791 43.4667L52.2857 48H70.5187V37.4667H74.4066C83.7912 37.4667 89.2879 32.6667 89.2879 24.8C89.2879 15.8667 83.7912 12 72.3956 12ZM44.644 36.1333C43.3033 36.1333 41.9626 35.8667 40.756 35.4667L44.5099 23.4667H44.644L48.3978 35.4667C47.3253 35.8667 45.9846 36.1333 44.644 36.1333ZM73.0659 29.2H70.3846V19.6H73.0659C76.5517 19.6 79.367 20.8 79.367 24.4C79.367 28 76.5517 29.2 73.0659 29.2Z" fill="white"/>
</g>
<defs>
<linearGradient id="paint0_linear_378_24" x1="60.9772" y1="0" x2="60.9772" y2="60" gradientUnits="userSpaceOnUse">
<stop stop-color="#00AEEF"/>
<stop offset="0.212" stop-color="#0097DC"/>
<stop offset="0.519" stop-color="#007CC5"/>
<stop offset="0.792" stop-color="#006CB8"/>
<stop offset="1" stop-color="#0066B3"/>
</linearGradient>
<clipPath id="clip0_378_24">
<rect width="122" height="60" fill="white"/>
</clipPath>
</defs>
</svg>
