<svg width="43" height="40" viewBox="0 0 43 40" fill="none" xmlns="http://www.w3.org/2000/svg">
<g id="TEAMS" clip-path="url(#clip0_384_266)">
<g id="Group">
<path id="Vector" d="M30 15H41.1C42.1 15 43 15.9 43 16.9V27C43 30.9 39.9 34 36 34C32.1 34 29 30.9 29 27V16C29 15.4 29.4 15 30 15Z" fill="#5059C9"/>
<path id="Vector_2" d="M37.5 13C39.9853 13 42 10.9853 42 8.5C42 6.01472 39.9853 4 37.5 4C35.0147 4 33 6.01472 33 8.5C33 10.9853 35.0147 13 37.5 13Z" fill="#5059C9"/>
<path id="Vector_3" d="M23.5 13C27.0899 13 30 10.0899 30 6.5C30 2.91015 27.0899 0 23.5 0C19.9101 0 17 2.91015 17 6.5C17 10.0899 19.9101 13 23.5 13Z" fill="#7B83EB"/>
<path id="Vector_4" d="M32.2 15H13.8C12.8 15 11.9 15.9 12 16.9V28.4C11.9 34.6 16.8 39.8 23 39.9C29.2 39.7 34.1 34.6 34 28.4V16.9C34 15.9 33.2 15 32.2 15Z" fill="#7B83EB"/>
<path id="Vector_5" opacity="0.1" d="M24 15V31.2C24 31.9 23.5 32.6 22.9 32.9C22.6 33 22.4 33 22.2 33H12.9C12.8 32.7 12.7 32.3 12.5 32C12.1 30.9 12 29.7 12 28.5V16.9C12 15.9 12.8 15 13.8 15H24Z" fill="black"/>
<path id="Vector_6" opacity="0.2" d="M23 15V32.2C23 32.4 23 32.7 22.9 32.9C22.6 33.6 22 34 21.2 34H13.4C13.2 33.7 13.1 33.3 12.9 33C12.7 32.7 12.7 32.3 12.5 32C12.1 30.9 12 29.7 12 28.5V16.9C12 15.9 12.8 15 13.8 15H23Z" fill="black"/>
<path id="Vector_7" opacity="0.2" d="M23 15V30.2C23 31.2 22.2 32 21.2 32H12.6C12.2 30.9 12.1 29.7 12.1 28.5V16.9C12.1 15.9 12.9 15 13.9 15H23Z" fill="black"/>
<path id="Vector_8" opacity="0.2" d="M22 15V30.2C22 31.2 21.2 32 20.2 32H12.6C12.2 30.9 12.1 29.7 12.1 28.5V16.9C12.1 15.9 12.9 15 13.9 15H22Z" fill="black"/>
<path id="Vector_9" opacity="0.1" d="M24 9.8V13C23.8 13 23.7 13 23.5 13C23.3 13 23.2 13 23 13C22.7 13 22.3 12.9 22 12.8C20 12.3 18.3 10.9 17.5 9C17.4 8.7 17.3 8.3 17.2 8H22.2C23.2 8 24 8.8 24 9.8Z" fill="black"/>
<path id="Vector_10" opacity="0.2" d="M23 10.8V13C22.7 13 22.3 12.9 22 12.8C20 12.3 18.3 10.9 17.5 9H21.2C22.2 9 23 9.8 23 10.8Z" fill="black"/>
<path id="Vector_11" opacity="0.2" d="M23 10.8V13C22.7 13 22.3 12.9 22 12.8C20 12.3 18.3 10.9 17.5 9H21.2C22.2 9 23 9.8 23 10.8Z" fill="black"/>
<path id="Vector_12" opacity="0.2" d="M22 10.8V12.8C20 12.3 18.3 10.9 17.5 9H20.2C21.2 9 22 9.8 22 10.8Z" fill="black"/>
<path id="Vector_13" d="M1.8 9H20.1C21.1 9 21.9 9.8 21.9 10.8V29.1C21.9 30.1 21.1 30.9 20.1 30.9H1.8C0.8 30.9 0 30.1 0 29.1V10.8C0 9.8 0.8 9 1.8 9Z" fill="url(#paint0_linear_384_266)"/>
<path id="Vector_14" d="M15.8 16H12.1V26H9.79995V16H6.19995V14H15.8V16Z" fill="white"/>
</g>
</g>
<defs>
<linearGradient id="paint0_linear_384_266" x1="3.8218" y1="7.5677" x2="18.1782" y2="32.4323" gradientUnits="userSpaceOnUse">
<stop stop-color="#5A62C3"/>
<stop offset="0.5" stop-color="#4D55BD"/>
<stop offset="1" stop-color="#3940AB"/>
</linearGradient>
<clipPath id="clip0_384_266">
<rect width="43" height="40" fill="white"/>
</clipPath>
</defs>
</svg>
